/* XPM */
static char *c2ab91c3c442451297d170a099d40711m4m44uRqJ4RoAO1p[] = {
/* columns rows colors chars-per-pixel */
"32 32 121 2 ",
"   c None",
".  c #0058B2",
"X  c #0059B2",
"o  c #0059B3",
"O  c #005AB3",
"+  c #015AB3",
"@  c #0059B4",
"#  c #025AB4",
"$  c #035BB4",
"%  c #055CB4",
"&  c #065DB5",
"*  c #075EB5",
"=  c #085EB5",
"-  c #0B60B6",
";  c #0E62B7",
":  c #0F63B7",
">  c #1164B8",
",  c #1264B9",
"<  c #1365B9",
"1  c #1466B9",
"2  c #1667BA",
"3  c #1768BA",
"4  c #196ABA",
"5  c #1B6BBB",
"6  c #1C6BBB",
"7  c #216EBD",
"8  c #226FBD",
"9  c #2370BD",
"0  c #2571BE",
"q  c #2772BF",
"w  c #2974BF",
"e  c #2A74C0",
"r  c #2B75C0",
"t  c #2C76C0",
"y  c #2D76C0",
"u  c #2F78C1",
"i  c #3078C1",
"p  c #3179C2",
"a  c #337AC2",
"s  c #357BC3",
"d  c #3C80C5",
"f  c #3D81C5",
"g  c #3E81C5",
"h  c #4687C8",
"j  c #4787C8",
"k  c #4A89C9",
"l  c #4E8CCA",
"z  c #508DCB",
"x  c #518ECB",
"c  c #538FCC",
"v  c #5490CC",
"b  c #5691CD",
"n  c #5C95CE",
"m  c #5E96CF",
"M  c #6198D0",
"N  c #6399D1",
"B  c #659BD1",
"V  c #679CD2",
"C  c #6B9FD3",
"Z  c #6C9FD3",
"A  c #6DA0D3",
"S  c #6FA1D4",
"D  c #70A2D4",
"F  c #72A3D5",
"G  c #73A4D5",
"H  c #77A6D6",
"J  c #7AA8D7",
"K  c #7BA9D8",
"L  c #7DAAD8",
"P  c #80ACD9",
"I  c #81ADD9",
"U  c #84AFDA",
"Y  c #87B1DB",
"T  c #88B2DC",
"R  c #8DB5DD",
"E  c #8EB5DD",
"W  c #95BADF",
"Q  c #99BDE1",
"!  c #9BBEE1",
"~  c #9DBFE2",
"^  c #9EC0E2",
"/  c #A0C1E3",
"(  c #A6C5E4",
")  c #A7C6E5",
"_  c #A9C7E5",
"`  c #B0CCE7",
"'  c #B7D0EA",
"]  c #B8D1EA",
"[  c #BCD3EB",
"{  c #BFD5EC",
"}  c #C2D7ED",
"|  c #C6DAEE",
" . c #CCDEF0",
".. c #CDDEF0",
"X. c #CEDFF0",
"o. c #D0E0F1",
"O. c #D3E2F2",
"+. c #D5E4F2",
"@. c #D6E4F3",
"#. c #D7E5F3",
"$. c #DCE8F5",
"%. c #DDE9F5",
"&. c #E4EDF7",
"*. c #E6EFF8",
"=. c #E8F0F8",
"-. c #E9F1F8",
";. c #EBF2F9",
":. c #EFF5FA",
">. c #F0F5FB",
",. c #F1F6FB",
"<. c #F3F7FB",
"1. c #F4F8FC",
"2. c #F5F8FC",
"3. c #F7FAFD",
"4. c #F9FBFD",
"5. c #FAFCFE",
"6. c #FBFCFE",
"7. c #FCFDFE",
"8. c #FDFEFE",
"9. c #FEFEFF",
"0. c white",
/* pixels */
"                                                                ",
"                                                                ",
"                        o o o o . O o O                         ",
"                    o o o o o o O O O O . O O                   ",
"                o o o o o o o o . O @ O . @ O .                 ",
"              o o o o o o o o o O . . O . O @ . O               ",
"            o o o o o o o o o d e . O . @ @ O O O O             ",
"          o o o o o o o o o ; *...O . O O . . @ @ . @           ",
"        o o o o o o o o o o E -.4.M . O @ . . O O . @ O         ",
"        o o o o o o o o o w 6.n E *.= . O O @ @ O @ . O         ",
"      o o o o o o o o o o ' | > , ;.P O . @ O . . . @ @ O       ",
"      o o o o o o o o o x 7.p ! M Z 4.= . O @ . @ O O . O       ",
"    o o o o o o o o o = %.! p 7.z J >.= . @ O O O @ @ . O O     ",
"    o o o o o o o o o L ,.4 } [ 6 <.F . O @ . @ . . O O . @     ",
"    o o o o o o o o 6 1.S n 6.y ) @.& . O . @ . @ O . @ O O     ",
"    o o o o o o o o ) +.> &.E d 7.j . O @ . O O @ . O @ . O     ",
"    . O @ . . O o 0 7.k Y -.> o.` O . O @ O . . @ O . @ O O     ",
"    @ @ O O @ @ o b 7.* *.B C 1.8 O O . . O @ O @ . O @ . @     ",
"    O . . @ O . o i 7.j u O N x . . . O . @ . O O O . . O O     ",
"    @ @ . O @ . o 8 _ 1./ T T T T J J b O . O . . @ @ O O O     ",
"      O O . O O o G y F ] ...... . ...7.l O . O @ . . O .       ",
"      O . O . @ o < +.U d s s p e e > ~ $.* O . O O @ @ O       ",
"        O . O . O O 6 ~ ;.7.7.7.4.6.{ 2 <.F O O . @ O .         ",
"        . O . O . O = c < > 8 e 6 e 8 O K :.> O . O O O         ",
"          O O O O . @ e o.;.$. . . . . .@.7.Q O @ O O           ",
"            @ . @ . O . O s C H H H H J P U Z @ @ .             ",
"              O @ O . O O O . . . . O . O . O . O               ",
"                . O @ O . @ @ O O @ . O . O O O                 ",
"                    O O O O O O . . @ O O O .                   ",
"                        O @ . O @ O @ .                         ",
"                                                                ",
"                                                                "
};
