/* XPM */
static char *_f920767eb524600ca2408853ed7ec8dB608EeAfqGo8j6Uj[] = {
/* columns rows colors chars-per-pixel */
"16 16 49 1 ",
"  c None",
". c #0058B3",
"X c #0059B3",
"o c #005AB3",
"O c #015AB3",
"+ c #0059B4",
"@ c #035BB4",
"# c #055CB4",
"$ c #085EB5",
"% c #0A60B6",
"& c #1265B8",
"* c #1869BA",
"= c #216EBD",
"- c #2370BD",
"; c #347BC2",
": c #387DC4",
"> c #3B7FC5",
", c #3E81C5",
"< c #4384C7",
"1 c #4485C7",
"2 c #4B8AC9",
"3 c #4C8ACA",
"4 c #528ECB",
"5 c #5A94CE",
"6 c #5F97CF",
"7 c #6097D0",
"8 c #679CD2",
"9 c #6A9ED3",
"0 c #6EA1D4",
"q c #70A2D4",
"w c #72A3D5",
"e c #76A6D6",
"r c #7BA9D7",
"t c #7CAAD8",
"y c #82AEDA",
"u c #88B2DC",
"i c #8DB4DD",
"p c #91B7DE",
"a c #93B9DF",
"s c #9CBEE1",
"d c #9FC1E2",
"f c #A3C3E4",
"g c #A7C6E5",
"h c #A8C6E5",
"j c #AAC8E6",
"k c #AFCBE7",
"l c #B0CCE7",
"z c #B2CDE8",
"x c #B4CEE9",
/* pixels */
"                ",
"     XXXXXX     ",
"    XXXXXXXX    ",
"   XXXX2,XXXX   ",
"  XXXX%xxoo.XX  ",
" XXXXXy697.oXXo ",
" XXXX=dh05o.ooo ",
" XXXXf8elo.o.oo ",
" o.o&sli;.o.o.o ",
" .o.&x491:.o.oo ",
" o.o=q0qqs2.ooo ",
"  ooo:tus,z#.o  ",
"   o.$tgjjl,o   ",
"    ooo..ooo    ",
"     oooo.o     ",
"                "
};
