/* XPM */
static char *_6d8b1d8633a4990cd5b155cb7eff516ECB3GYzwMcasV4kL[] = {
/* columns rows colors chars-per-pixel */
"64 64 173 2 ",
"   c None",
".  c #0058B2",
"X  c #0059B2",
"o  c #0058B3",
"O  c #0059B3",
"+  c #005AB3",
"@  c #015AB3",
"#  c #0059B4",
"$  c #025AB4",
"%  c #035BB4",
"&  c #045CB4",
"*  c #055CB4",
"=  c #065DB5",
"-  c #075EB5",
";  c #085EB5",
":  c #095FB6",
">  c #0A60B6",
",  c #0B60B6",
"<  c #0C61B7",
"1  c #0D61B7",
"2  c #1063B8",
"3  c #1164B8",
"4  c #1265B8",
"5  c #1466B9",
"6  c #1567B9",
"7  c #1667BA",
"8  c #1869BA",
"9  c #1969BA",
"0  c #1A6ABB",
"q  c #1B6BBB",
"w  c #1D6CBC",
"e  c #1E6DBC",
"r  c #1F6DBC",
"t  c #206EBD",
"y  c #216EBD",
"u  c #2672BE",
"i  c #2B75C0",
"p  c #2D76C0",
"a  c #2E77C1",
"s  c #2F78C1",
"d  c #3078C1",
"f  c #3179C2",
"g  c #337AC2",
"h  c #347BC2",
"j  c #357BC3",
"k  c #377DC3",
"l  c #387DC4",
"z  c #397EC4",
"x  c #3B7FC5",
"c  c #3C80C5",
"v  c #3E81C5",
"b  c #3F82C6",
"n  c #4083C6",
"m  c #4284C7",
"M  c #4485C7",
"N  c #4787C8",
"B  c #4888C8",
"V  c #4A89C9",
"C  c #4B8AC9",
"Z  c #4C8ACA",
"A  c #508DCB",
"S  c #518ECB",
"D  c #5490CC",
"F  c #5590CC",
"G  c #5892CD",
"H  c #5993CE",
"J  c #5A94CE",
"K  c #5B94CE",
"L  c #6097D0",
"P  c #6299D0",
"I  c #669BD1",
"U  c #679CD2",
"Y  c #699DD2",
"T  c #6A9ED3",
"R  c #6B9FD3",
"E  c #6C9FD3",
"W  c #6DA0D3",
"Q  c #6EA1D4",
"!  c #6FA1D4",
"~  c #70A2D4",
"^  c #73A4D5",
"/  c #74A5D6",
"(  c #75A5D6",
")  c #76A6D6",
"_  c #78A7D7",
"`  c #7AA8D7",
"'  c #7BA9D8",
"]  c #7DAAD8",
"[  c #7EABD9",
"{  c #80ACD9",
"}  c #81ADD9",
"|  c #82AEDA",
" . c #85B0DB",
".. c #87B1DB",
"X. c #88B2DC",
"o. c #89B2DC",
"O. c #8BB3DC",
"+. c #8EB5DD",
"@. c #8FB6DE",
"#. c #90B7DE",
"$. c #91B7DE",
"%. c #93B9DF",
"&. c #94B9DF",
"*. c #95BADF",
"=. c #97BBE0",
"-. c #98BCE0",
";. c #99BDE1",
":. c #9ABDE1",
">. c #9BBEE1",
",. c #A3C3E4",
"<. c #A4C4E4",
"1. c #A5C4E4",
"2. c #A6C5E4",
"3. c #A7C6E5",
"4. c #A9C7E5",
"5. c #AAC8E6",
"6. c #ACC9E6",
"7. c #ADCAE7",
"8. c #B1CCE8",
"9. c #B2CDE8",
"0. c #B5CFE9",
"q. c #B6CFE9",
"w. c #BDD4EB",
"e. c #BED5EC",
"r. c #C0D6EC",
"t. c #C1D7ED",
"y. c #C3D8ED",
"u. c #C4D9ED",
"i. c #C7DBEE",
"p. c #C8DBEF",
"a. c #C9DCEF",
"s. c #CBDDEF",
"d. c #CFE0F1",
"f. c #D0E0F1",
"g. c #D1E1F1",
"h. c #D2E2F2",
"j. c #D3E2F2",
"k. c #D4E3F2",
"l. c #D5E4F2",
"z. c #D8E6F3",
"x. c #D9E6F4",
"c. c #DBE8F4",
"v. c #DCE8F5",
"b. c #DDE9F5",
"n. c #DEEAF5",
"m. c #E0EBF6",
"M. c #E1EBF6",
"N. c #E2ECF6",
"B. c #E3EDF7",
"V. c #E5EEF7",
"C. c #E6EFF8",
"Z. c #E8F0F8",
"A. c #E9F1F8",
"S. c #EBF2F9",
"D. c #ECF3F9",
"F. c #EEF4FA",
"G. c #EFF5FA",
"H. c #F0F5FB",
"J. c #F1F6FB",
"K. c #F2F7FB",
"L. c #F3F7FB",
"P. c #F4F8FC",
"I. c #F5F8FC",
"U. c #F6F9FC",
"Y. c #F7FAFD",
"T. c #F8FAFD",
"R. c #F9FBFD",
"E. c #FAFCFE",
"W. c #FBFCFE",
"Q. c #FCFDFE",
"!. c #FDFEFE",
"~. c #FEFEFF",
"^. c white",
/* pixels */
"                                                                                                                                ",
"                                                                                                                                ",
"                                                                                                                                ",
"                                                                                                                                ",
"                                                  $ O O O O O O O O O O O O O                                                   ",
"                                            O O O O O O O O O O O O O O O O O O O O                                             ",
"                                        O O O O O O O O O O O O O O O O O O O O O O O O                                         ",
"                                    O O O O O O O O O O O O O O O O O O O O O O O O O O O $                                     ",
"                                O O O O O O O O O O O O O O O O O O O O O O O O O O O O O O O O                                 ",
"                              O O O O O O O O O O O O O O O O O O O O O O O O O O O O O O O O O O                               ",
"                            O O O O O O O O O O O O O O O O O O O O O O O O O O O O O O O O O O O O                             ",
"                          O O O O O O O O O O O O O O O O O O o O O O O O O O O O O O O O O O O O O O                           ",
"                        O O O O O O O O O O O O O O O O O O O $ O O O O O O O O O O O O O O O O O O O O                         ",
"                      O O O O O O O O O O O O O O O O O O O 8 n.5.O O O O O O O O O O O O O O O O O O O O                       ",
"                    O O O O O O O O O O O O O O O O O O O O 3.^.^.A O O O O O O O O O O O O O O O O O O O O                     ",
"                  O O O O O O O O O O O O O O O O O O O O z ^.^.^.n.& O O O O O O O O O O O O O O O O O O O O                   ",
"                O O O O O O O O O O O O O O O O O O O O $ s.^.^.^.^./ O O O O O O O O O O O O O O O O O O O O +                 ",
"                O O O O O O O O O O O O O O O O O O O O U ^.^.3.S.^.J.6 O O O O O O O O O O O O O O O O O O O O                 ",
"              O O O O O O O O O O O O O O O O O O O O 4 S.^.J.8 U ^.^.*.O O O O O O O O O O O O O O O O O O O O O               ",
"              O O O O O O O O O O O O O O O O O O O O %.^.^.! O O d.^.^.p O O O O O O O O O O O O O O O O O O O O               ",
"            O O O O O O O O O O O O O O O O O O O O i W.^.k.* O O m ^.^.w.O O O O O O O O O O O O O O O O O O O O O             ",
"            O O O O O O O O O O O O O O O O O O O O e.^.^.N O n : O 8.^.^.Z O O O O O O O O O O O O O O O O O O O O             ",
"          O O O O O O O O O O O O O O O O O O O O F ^.^.7.O : n.' O u R.^.z.% O O O O O O O O O O O O O O O O O O O O           ",
"          O O O O O O O O O O O O O O O O O O O , m.^.U.t O [ ^.J.8 O @.^.^.k O O O O O O O O O O O O O O O O O O O O           ",
"          O O O O O O O O O O O O O O O O O O O { ^.^.{ O w P.^.V., O 3.^.^.p $ O O O O O O O O O O O O O O O O O O O           ",
"        O O O O O O O O O O O O O O O O O O O t U.^.M., O 4.^.^.G O c ^.^.t.O O O O O O O O O O O O O O O O O O O O O           ",
"        O O O O O O O O O O O O O O O O O O O 7.^.^.F O z ^.^.u.O & h.^.^.h O O O O O O O O O O O O O O O O O O O O O $         ",
"        O O O O O O O O O O O O O O O O O O m ^.^.u.O % h.^.^.s O Y ^.^.*.O O O O O O O O O O O O O O O O O O O O O O O         ",
"        O O O O O O O O O O O O O O O O O & h.^.^.p O W ^.^.*.O 4 S.^.D.6 O O O O O O O O O O O O O O O O O O O O O O O         ",
"        O O O O O O O O O O O O O O O O O ~ ^.^.%.O 4 S.^.G.6 O *.^.^.E O O O O O O O O O O O O O O O O O O O O O O O O         ",
"        O O O O O O O O O O O O O O O O 6 G.^.D.4 O :.^.^.Y O p ^.^.k.* O O O O O O O O O O O O O O O O O O O O O O O O         ",
"        O O O O O O O O O O O O O O O O :.^.^.Y O f W.^.h.& O t.^.^.n O O O O O O O O O O O O O O O O O O O O O O O O O         ",
"        O O O O O O O O O O O O O O O 8 W.^.h.$ O t.^.^.n O G ^.^.4.O O O O O O O O O O O O O O O O O O O O O O O O O O         ",
"        O O O O O O O O O O O O O O O _ ^.^.B O J ^.^.4.O , m.^.U.w O O O O O O O O O O O O O O O O O O O O O O O O O O         ",
"        O O O O O O O O O O O O O O O ,.^.U.$ O n.^.I.w O { ^.^.{ O O O O O O O O O O O O O O O O O O O O O O O O O O O         ",
"        O O O O O O O O O O O O O O O 7.^.D.O O V.^.[ O t R.^.m.: O O O O O O O O O O O O O O O O O O O O O O O O O O O         ",
"        O O O O O O O O O O O O O O O o.^.^.p $ k $.: O @.n.v.A O O O O O O O O O O O O O O O O O O O O O O O O O O O O         ",
"        O O O O O O O O O O O O O O O k ^.^.w.& O O O O O O O O O O O O O O O O O O O O O O O O O O O O O O O O O O O $         ",
"        O O O O O O O O O O O O O O 6 $ 0.^.^.u.B 8 3 3 4 1 O O O O O O O O O O O O O O O O O O O O O O O O O O O O O           ",
"          O O O O O O O O O O O O $ ~ 1 6 x.^.^.^.^.^.^.^.^.^.^.^.^.^.^.^.^.Z./ O O O O O O O O O O O O O O O O O O O           ",
"          O O O O O O O O O O O O O B 3.O 2 3.^.^.^.^.^.^.^.^.^.^.^.^.^.^.^.^.^.D $ O O O O O O O O O O O O O O O O O           ",
"          O O O O O O O O O O O O O & n.%.$ o w P { o.o.X.@.:.:.:.:.-.:.:.:.U.^.n.& O O O O O O O O O O O O O O O O O           ",
"            O O O O O O O O O O O O O G ^.t.d O O O O O O O O O O $ $ O O O  .^.^.` O O O O O O O O O O O O O O O O             ",
"            O O O O O O O O O O O O O O $.^.^.p.o.W U J F F F F F F F S B O 1 C.^.L.8 O O O O O O O O O O O O O O O             ",
"              O O O O O O O O O O O O O O E J.^.^.^.^.^.^.^.^.^.^.^.^.^.^.z O P ^.^.:.O O O O O O O O O O O O O O               ",
"              $ O O O O O O O O O O O O O O 4 / w.R.^.^.^.^.^.^.^.^.^.^.^.u.O $ s.^.^.f O O O O O O O O O O O O O               ",
"                O O O O O O O O O O O O O w t O O O 8 p M M M M M M M M M M 1 O c ^.^.e.O O O O O O O O O O O O                 ",
"                O O O O O O O O O O O O O O :.*.z & O O O O O O O O O O O O O O $ 7.^.^.A O O O O O O O O O O O                 ",
"                  O O O O O O O O O O O O O & 3.^.U.h.0.5.5.5.5.5.5.5.5.-.:.:.:.:.0.^.^.n.& O O O O O O O O O                   ",
"                    O O O O O O O O O O O O O O Y S.^.^.^.^.^.^.^.^.^.^.^.^.^.^.^.^.^.^.^.^ O O O O O O O O                     ",
"                      O O O O O O O O O O O O O O : B o.y.Z.R.^.^.J.G.J.^.^.^.^.^.^.^.^.^.8.O O O O O O O                       ",
"                        O O O O O O O O O O O O O O O O O O O O O O O O O O O O O O O O O O O O O O O O                         ",
"                          O O O O O O O O O O O O O O O O O O O O O O O O O O O O O O O O O O O O O O                           ",
"                            O O O O O O O O O O O O O O O O O O O O O O O O O O O O O O O O O O O O                             ",
"                              O O O O O O O O O O O O O O O O O O O O O O O O O O O O O O O O O O                               ",
"                                O O O O O O O O O O O O O O O O O O O O O O O O O O O O O O O O                                 ",
"                                    O O O O O O O O O O O O O O O O O O O O O O O O O O O O                                     ",
"                                        O O O O O O O O O O O O O O O O O O O O O O O O                                         ",
"                                            O O O O O O O O O O O O O O O O O O O O                                             ",
"                                                    O O O O O O O O O O O $                                                     ",
"                                                                                                                                ",
"                                                                                                                                ",
"                                                                                                                                ",
"                                                                                                                                "
};
